<?xml version="1.0" encoding="utf-8"?>
<!-- Generator: Adobe Illustrator 26.2.1, SVG Export Plug-In . SVG Version: 6.00 Build 0)  -->
<svg version="1.1" id="Livello_1" xmlns="http://www.w3.org/2000/svg" xmlns:xlink="http://www.w3.org/1999/xlink" x="0px" y="0px"
	 viewBox="0 0 1190.55 841.89" style="enable-background:new 0 0 1190.55 841.89;" xml:space="preserve">
<style type="text/css">
	.st0{fill:#6FC1E4;}
	.st1{fill:#FFFFFF;}
</style>
<g>
	<path class="st0" d="M406.77,467.06v-26.87h9.26c2.09,0,3.68,0.13,4.78,0.38c1.54,0.35,2.85,1,3.94,1.92
		c1.42,1.2,2.48,2.73,3.18,4.59c0.7,1.86,1.05,3.99,1.05,6.39c0,2.04-0.24,3.85-0.71,5.42s-1.09,2.88-1.83,3.91
		c-0.75,1.03-1.56,1.84-2.45,2.44c-0.89,0.59-1.96,1.04-3.21,1.35c-1.25,0.3-2.69,0.46-4.32,0.46H406.77z M410.33,463.89h5.74
		c1.77,0,3.16-0.17,4.17-0.5c1.01-0.33,1.81-0.79,2.41-1.39c0.84-0.84,1.5-1.98,1.97-3.4c0.47-1.42,0.71-3.15,0.71-5.18
		c0-2.81-0.46-4.97-1.38-6.48s-2.04-2.52-3.36-3.03c-0.95-0.37-2.49-0.55-4.6-0.55h-5.65V463.89z"/>
	<path class="st0" d="M436.55,453.97c0-4.46,1.2-7.95,3.59-10.47c2.39-2.52,5.49-3.79,9.27-3.79c2.48,0,4.72,0.59,6.71,1.78
		c1.99,1.18,3.51,2.84,4.55,4.96c1.04,2.12,1.57,4.52,1.57,7.21c0,2.72-0.55,5.16-1.65,7.31s-2.66,3.78-4.67,4.88
		c-2.02,1.11-4.19,1.66-6.52,1.66c-2.53,0-4.79-0.61-6.78-1.83c-1.99-1.22-3.5-2.89-4.53-5
		C437.06,458.57,436.55,456.33,436.55,453.97z M440.22,454.03c0,3.24,0.87,5.79,2.61,7.65c1.74,1.86,3.93,2.79,6.55,2.79
		c2.68,0,4.88-0.94,6.61-2.82c1.73-1.88,2.59-4.55,2.59-8.01c0-2.19-0.37-4.1-1.11-5.73c-0.74-1.63-1.82-2.9-3.24-3.79
		c-1.42-0.9-3.02-1.35-4.79-1.35c-2.52,0-4.68,0.87-6.5,2.59C441.12,447.1,440.22,449.98,440.22,454.03z"/>
	<path class="st0" d="M489.75,457.64l3.56,0.9c-0.75,2.92-2.09,5.15-4.02,6.68s-4.3,2.3-7.1,2.3c-2.9,0-5.25-0.59-7.07-1.77
		s-3.2-2.89-4.14-5.12c-0.95-2.24-1.42-4.64-1.42-7.2c0-2.8,0.53-5.24,1.6-7.32c1.07-2.08,2.59-3.67,4.56-4.75
		c1.97-1.08,4.14-1.62,6.52-1.62c2.69,0,4.95,0.68,6.78,2.05c1.83,1.37,3.11,3.29,3.83,5.77l-3.5,0.82
		c-0.62-1.96-1.53-3.38-2.71-4.27c-1.19-0.89-2.68-1.34-4.47-1.34c-2.06,0-3.79,0.5-5.18,1.48c-1.39,0.99-2.36,2.32-2.92,3.99
		s-0.84,3.39-0.84,5.16c0,2.29,0.33,4.28,1,5.98c0.67,1.7,1.7,2.98,3.11,3.82c1.4,0.84,2.93,1.26,4.56,1.26
		c1.99,0,3.68-0.57,5.06-1.72C488.33,461.6,489.26,459.9,489.75,457.64z"/>
	<path class="st0" d="M508.28,467.06v-23.7h-8.85v-3.17h21.3v3.17h-8.89v23.7H508.28z"/>
	<path class="st0" d="M526.36,453.97c0-4.46,1.2-7.95,3.59-10.47c2.39-2.52,5.49-3.79,9.27-3.79c2.48,0,4.72,0.59,6.71,1.78
		c1.99,1.18,3.51,2.84,4.55,4.96c1.04,2.12,1.57,4.52,1.57,7.21c0,2.72-0.55,5.16-1.65,7.31s-2.66,3.78-4.67,4.88
		c-2.02,1.11-4.19,1.66-6.52,1.66c-2.53,0-4.79-0.61-6.78-1.83c-1.99-1.22-3.5-2.89-4.53-5
		C526.87,458.57,526.36,456.33,526.36,453.97z M530.03,454.03c0,3.24,0.87,5.79,2.61,7.65c1.74,1.86,3.93,2.79,6.55,2.79
		c2.68,0,4.88-0.94,6.61-2.82c1.73-1.88,2.59-4.55,2.59-8.01c0-2.19-0.37-4.1-1.11-5.73c-0.74-1.63-1.82-2.9-3.24-3.79
		c-1.42-0.9-3.02-1.35-4.79-1.35c-2.52,0-4.68,0.87-6.5,2.59C530.93,447.1,530.03,449.98,530.03,454.03z"/>
	<path class="st0" d="M560.45,467.06v-26.87h11.91c2.39,0,4.22,0.24,5.46,0.72c1.25,0.48,2.24,1.34,2.99,2.56
		c0.75,1.22,1.12,2.57,1.12,4.05c0,1.91-0.62,3.51-1.85,4.82c-1.23,1.31-3.14,2.14-5.72,2.49c0.94,0.45,1.66,0.9,2.14,1.34
		c1.04,0.95,2.02,2.14,2.95,3.57l4.67,7.31h-4.47l-3.56-5.59c-1.04-1.61-1.89-2.85-2.57-3.7s-1.27-1.45-1.81-1.8
		c-0.53-0.34-1.07-0.58-1.62-0.71c-0.4-0.09-1.06-0.13-1.98-0.13H564v11.93H560.45z M564,452.05h7.64c1.62,0,2.9-0.17,3.81-0.5
		c0.92-0.34,1.61-0.87,2.09-1.61c0.48-0.74,0.71-1.54,0.71-2.41c0-1.27-0.46-2.32-1.38-3.13s-2.38-1.23-4.37-1.23H564V452.05z"/>
	<path class="st0" d="M588.3,467.06l10.32-26.87h3.83l11,26.87h-4.05l-3.13-8.14h-11.23l-2.95,8.14H588.3z M596.05,456.02h9.11
		l-2.8-7.44c-0.86-2.26-1.49-4.12-1.91-5.57c-0.34,1.72-0.83,3.43-1.45,5.13L596.05,456.02z"/>
	<path class="st0" d="M619.89,467.06v-26.87h3.56v23.7h13.23v3.17H619.89z"/>
	<path class="st0" d="M657.42,467.06v-26.87h3.65l14.11,21.09v-21.09h3.41v26.87h-3.65l-14.11-21.11v21.11H657.42z"/>
	<path class="st0" d="M688.39,467.06v-26.87h19.43v3.17h-15.87v8.23h14.86v3.15h-14.86v9.15h16.49v3.17H688.39z"/>
	<path class="st0" d="M723.94,467.06v-23.7h-8.85v-3.17h21.3v3.17h-8.89v23.7H723.94z"/>
	<path class="st0" d="M748.48,467.06l-7.13-26.87h3.65l4.09,17.61c0.44,1.85,0.82,3.68,1.14,5.5c0.68-2.87,1.09-4.53,1.21-4.97
		l5.11-18.14h4.29l3.85,13.6c0.96,3.37,1.66,6.54,2.09,9.51c0.34-1.7,0.79-3.65,1.34-5.85l4.22-17.26h3.57l-7.37,26.87h-3.43
		l-5.66-20.47c-0.48-1.71-0.76-2.76-0.84-3.15c-0.28,1.23-0.54,2.29-0.79,3.15l-5.7,20.47H748.48z"/>
	<path class="st0" d="M781.88,453.97c0-4.46,1.2-7.95,3.59-10.47c2.39-2.52,5.49-3.79,9.27-3.79c2.48,0,4.72,0.59,6.71,1.78
		c1.99,1.18,3.51,2.84,4.55,4.96c1.04,2.12,1.57,4.52,1.57,7.21c0,2.72-0.55,5.16-1.65,7.31s-2.66,3.78-4.67,4.88
		c-2.02,1.11-4.19,1.66-6.52,1.66c-2.53,0-4.79-0.61-6.78-1.83c-1.99-1.22-3.5-2.89-4.53-5
		C782.4,458.57,781.88,456.33,781.88,453.97z M785.55,454.03c0,3.24,0.87,5.79,2.61,7.65s3.92,2.79,6.55,2.79
		c2.68,0,4.88-0.94,6.61-2.82c1.73-1.88,2.59-4.55,2.59-8.01c0-2.19-0.37-4.1-1.11-5.73c-0.74-1.63-1.82-2.9-3.24-3.79
		c-1.42-0.9-3.02-1.35-4.79-1.35c-2.52,0-4.68,0.87-6.5,2.59S785.55,449.98,785.55,454.03z"/>
	<path class="st0" d="M815.97,467.06v-26.87h11.91c2.39,0,4.22,0.24,5.46,0.72c1.25,0.48,2.24,1.34,2.99,2.56
		c0.75,1.22,1.12,2.57,1.12,4.05c0,1.91-0.62,3.51-1.85,4.82s-3.14,2.14-5.72,2.49c0.94,0.45,1.66,0.9,2.14,1.34
		c1.04,0.95,2.02,2.14,2.95,3.57l4.67,7.31h-4.47l-3.55-5.59c-1.04-1.61-1.89-2.85-2.57-3.7s-1.27-1.45-1.8-1.8
		c-0.53-0.34-1.07-0.58-1.62-0.71c-0.4-0.09-1.06-0.13-1.98-0.13h-4.12v11.93H815.97z M819.52,452.05h7.64c1.62,0,2.9-0.17,3.81-0.5
		c0.92-0.34,1.61-0.87,2.09-1.61s0.71-1.54,0.71-2.41c0-1.27-0.46-2.32-1.38-3.13s-2.38-1.23-4.37-1.23h-8.5V452.05z"/>
	<path class="st0" d="M846.63,467.06v-26.87h3.56v13.32l13.34-13.32h4.82l-11.27,10.89l11.77,15.98h-4.69l-9.57-13.6l-4.4,4.29v9.31
		H846.63z"/>
</g>
<circle class="st1" cx="314.48" cy="415.11" r="55.35"/>
<g>
	
		<ellipse transform="matrix(0.7071 -0.7071 0.7071 0.7071 -180.018 348.0095)" class="st0" cx="330.08" cy="391.31" rx="13.35" ry="13.35"/>
	
		<ellipse transform="matrix(0.9732 -0.2298 0.2298 0.9732 -78.6685 80.26)" class="st0" cx="305.33" cy="377.96" rx="12.15" ry="12.15"/>
	<circle class="st0" cx="312.08" cy="441.41" r="17.25"/>
	<circle class="st0" cx="299.78" cy="410.66" r="11.25"/>
	
		<ellipse transform="matrix(0.9732 -0.2298 0.2298 0.9732 -82.2884 76.3307)" class="st0" cx="286.64" cy="391.53" rx="9.15" ry="9.15"/>
	<circle class="st0" cx="271.13" cy="430.46" r="9"/>
	<path class="st0" d="M293.48,450.11c0-6.21-5.04-11.25-11.25-11.25c-5.96,0-10.83,4.64-11.21,10.5c3.63,4.6,7.97,8.61,12.86,11.86
		C289.3,460.42,293.48,455.76,293.48,450.11z"/>
	
		<ellipse transform="matrix(0.9871 -0.1602 0.1602 0.9871 -63.5585 62.257)" class="st0" cx="354.38" cy="425.36" rx="13.8" ry="13.8"/>
	<path class="st0" d="M353.46,375.82c-4.22,3.8-6.88,9.29-6.88,15.41c0,11.47,9.3,20.77,20.78,20.77c0.8,0,1.59-0.06,2.37-0.15
		C368.91,397.79,362.85,385.13,353.46,375.82z"/>
	<path class="st0" d="M344.03,378.41c3.22,0,5.99-1.88,7.29-4.59c-3.98-3.56-8.49-6.54-13.38-8.84c-1.25,1.43-2.01,3.29-2.01,5.33
		C335.93,374.78,339.55,378.41,344.03,378.41z"/>
	<path class="st0" d="M325.58,376.31c5.3,0,9.6-4.3,9.6-9.6c0-1.1-0.2-2.16-0.54-3.15c-4.98-1.95-10.31-3.2-15.87-3.62
		c-1.73,1.74-2.79,4.13-2.79,6.77C315.98,372.01,320.27,376.31,325.58,376.31z"/>
	
		<ellipse transform="matrix(0.7071 -0.7071 0.7071 0.7071 -216.3992 371.7776)" class="st0" cx="340.58" cy="447.11" rx="9.9" ry="9.9"/>
	
		<ellipse transform="matrix(0.9871 -0.1602 0.1602 0.9871 -69.567 58.8239)" class="st0" cx="330.08" cy="460.91" rx="5.7" ry="5.7"/>
	<path class="st0" d="M313.73,460.76c-5.03,0-9.17,3.81-9.69,8.7c3.38,0.65,6.87,1,10.44,1c3.05,0,6.04-0.26,8.96-0.73
		C323.04,464.71,318.85,460.76,313.73,460.76z"/>
	
		<ellipse transform="matrix(0.7071 -0.7071 0.7071 0.7071 -239.3663 345.13)" class="st0" cx="296.93" cy="461.51" rx="5.4" ry="5.4"/>
	<circle class="st0" cx="287.18" cy="430.76" r="6.3"/>
	
		<ellipse transform="matrix(0.9732 -0.2298 0.2298 0.9732 -88.4421 76.124)" class="st0" cx="282.68" cy="417.86" rx="5.4" ry="5.4"/>
	<path class="st0" d="M280.43,405.56c0,1.57,1.28,2.85,2.85,2.85c1.57,0,2.85-1.28,2.85-2.85c0-1.57-1.28-2.85-2.85-2.85
		C281.7,402.71,280.43,403.98,280.43,405.56z"/>
	
		<ellipse transform="matrix(0.9732 -0.2298 0.2298 0.9732 -82.7059 81.8825)" class="st0" cx="310.28" cy="396.11" rx="5.4" ry="5.4"/>
	
		<ellipse transform="matrix(0.7071 -0.7071 0.7071 0.7071 -198.3589 348.7307)" class="st0" cx="321.78" cy="413.81" rx="9.15" ry="9.15"/>
	
		<ellipse transform="matrix(0.3827 -0.9239 0.9239 0.3827 -189.12 571.2732)" class="st0" cx="332.93" cy="427.16" rx="6.6" ry="6.6"/>
	<circle class="st0" cx="339.83" cy="411.41" r="5.1"/>
	<path class="st0" d="M291.85,367.11c0-0.83-0.09-1.63-0.23-2.41c-7.31,3.32-13.76,8.18-18.96,14.17c1.8,0.92,3.83,1.45,5.99,1.45
		C285.94,380.31,291.85,374.4,291.85,367.11z"/>
	<path class="st0" d="M276.38,394.76c0-4.92-3.71-8.97-8.48-9.53c-3.3,5.13-5.77,10.83-7.23,16.93c1.66,1.37,3.79,2.2,6.11,2.2
		C272.08,404.36,276.38,400.06,276.38,394.76z"/>
	<circle class="st0" cx="269.93" cy="412.31" r="7.2"/>
</g>
<g>
	<path class="st0" d="M416.89,364.64l28.88,40.56c0,0-0.26-6.82-0.26-13.2v-27.36h11.81v60.32h-9.51l-29.49-40.91
		c0,0,0.26,7.26,0.26,13.64v27.27h-11.81v-60.32H416.89z"/>
	<path class="st0" d="M507.41,364.64v11.28h-25v12.33h17.6v11.28h-17.6v13.99h25.79v11.45h-39.86v-60.32H507.41z"/>
	<path class="st0" d="M511.77,364.64h16.78l11.28,19.84l11.28-19.84h16.78l-18.79,29.02l20.02,31.3h-16.87l-12.41-22.47l-12.5,22.47
		h-16.87l20.02-31.3L511.77,364.64z"/>
	<path class="st0" d="M572.59,375.83v-11.19h45.28v11.19h-15.56v49.13h-14.16v-49.13H572.59z"/>
	<path class="st0" d="M641.18,415.54c3.3,0,9.15-1.5,8.9-7.55c-0.17-4.11-5.47-6.66-8.08-7.64l-8.39-3.15
		c-7.53-2.82-11.77-8.36-11.68-15.26c0.18-12.46,10.18-18.17,21.2-18.01c10.65,0.16,15.6,7.21,18.9,11.56l-9.15,5.55
		c-3.5-3.5-5.55-5.92-10.1-5.92c-4.55,0-7.87,1.75-7.87,5.42c0,3.6,3.26,5.01,6.12,6.12l9,3.41c7.69,2.83,13.11,7.74,13.11,16.52
		c0,13.06-11.75,19.53-23.43,19.41c-10.69-0.11-15.49-8.36-18.64-14.36l8.85-5.25C632.78,411.49,636.55,415.54,641.18,415.54z"/>
	<path class="st0" d="M702.25,426c-17.75,0-31.65-11.71-31.65-31.12c0-19.49,14.07-31.12,31.65-31.12c12.41,0,19.14,5.16,20.72,6.82
		l-7.99,8.96c-1.14-1.49-3.99-3.54-11.94-3.54c-10.23,0-18.1,6.82-18.1,18.62s8.22,18.53,18.1,18.53c7.52,0,9.37-0.5,12.69-3.91
		l8.29,8.54C720.96,420.93,714.58,426,702.25,426z"/>
	<path class="st0" d="M768.07,368.92c4.02,2.97,6.64,7.78,6.64,13.81c0,5.85-1.92,9.87-4.38,12.6c-2.36,2.61-5.24,4.03-7.42,4.71
		l15.3,24.91h-13.43l-12.68-20.08h-8.46v20.08h-13.16v-60.32h21.68C758.9,364.64,764.14,366.03,768.07,368.92z M758.41,393.38
		c1.84-1.31,3.06-4.97,3.06-8.12c0-3.06-1.22-6.81-3.06-8.12c-1.75-1.31-5.02-1.57-8.26-1.57h-6.59v19.47h6.59
		C753.39,395.04,756.66,394.69,758.41,393.38z"/>
	<path class="st0" d="M825.01,364.64v11.28h-25v12.33h18.6v11.28h-18.6v13.99h25.79v11.45h-39.86v-60.32H825.01z"/>
	<path class="st0" d="M871.61,364.64v11.28h-25v12.33h18.6v11.28h-18.6v13.99h25.79v11.45h-39.86v-60.32H871.61z"/>
	<path class="st0" d="M892.26,364.64l27.88,40.56c0,0-0.26-6.82-0.26-13.2v-27.36h11.81v60.32h-11.51l-26.49-40.91
		c0,0,0.26,7.26,0.26,13.64v27.27h-13.81v-60.32H892.26z"/>
</g>
</svg>
